PathFileType	4	(X/Y/Z)	/Users/itak/Documents/Research/Walk-IL/dataset/trc/00543_00009.trc
DataRate	CameraRate	NumFrames	NumMarkers	Units	OrigDataRate	OrigDataStartFrame	OrigNumFrames
100.000000	100.000000	4	53	mm	100.000000	277	741
Frame#	Time	RPSI			LPSI			L3			STRN			T10			C7			CLAV			RBAK			LBAK			LSHO			LUPA			LAEL			LAOL			LWTS			LWPS			LFRA			LIFD			LHPS			LHTS			RSHO			RUPA			RAEL			RAOL			RWTS			RWPS			RFRA			RIFD			RHTS			RHPS			RBHD			LFHD			RFHD			LBHD			LHIP			RHIP			RASI			LASI			LKNE			LTHI			LANK			LTIP			LTOE			LMT1			LMT5			LHEE			RKNE			RTHI			RANK			RTIP			RTOE			RMT1			RMT5			RHEE			
		X1	Y1	Z1	X2	Y2	Z2	X3	Y3	Z3	X4	Y4	Z4	X5	Y5	Z5	X6	Y6	Z6	X7	Y7	Z7	X8	Y8	Z8	X9	Y9	Z9	X10	Y10	Z10	X11	Y11	Z11	X12	Y12	Z12	X13	Y13	Z13	X14	Y14	Z14	X15	Y15	Z15	X16	Y16	Z16	X17	Y17	Z17	X18	Y18	Z18	X19	Y19	Z19	X20	Y20	Z20	X21	Y21	Z21	X22	Y22	Z22	X23	Y23	Z23	X24	Y24	Z24	X25	Y25	Z25	X26	Y26	Z26	X27	Y27	Z27	X28	Y28	Z28	X29	Y29	Z29	X30	Y30	Z30	X31	Y31	Z31	X32	Y32	Z32	X33	Y33	Z33	X34	Y34	Z34	X35	Y35	Z35	X36	Y36	Z36	X37	Y37	Z37	X38	Y38	Z38	X39	Y39	Z39	X40	Y40	Z40	X41	Y41	Z41	X42	Y42	Z42	X43	Y43	Z43	X44	Y44	Z44	X45	Y45	Z45	X46	Y46	Z46	X47	Y47	Z47	X48	Y48	Z48	X49	Y49	Z49	X50	Y50	Z50	X51	Y51	Z51	X52	Y52	Z52	X53	Y53	Z53	

278	2.77	-501.1645812988281	1016.810363769531	327.28564453125	-498.9589233398438	1019.277038574219	193.9727783203125	-492.3008117675781	1120.977783203125	257.1703796386719	-250.2993621826172	1304.146484375	258.3575744628906	-499.7108459472656	1244.7705078125	256.9548034667969	-446.4266357421875	1516.063354492188	278.2723693847656	-264.501220703125	1418.269165039062	264.4635314941406	-513.0603637695312	1390.815063476562	366.0755920410156	-479.5726318359375	1468.426147460938	181.1685333251953	-375.2176513671875	1498.30224609375	105.6332550048828	-375.8032836914062	1379.561645507812	13.99473285675049	-346.0804748535156	1159.970458984375	-19.73451232910156	-440.5130004882812	1143.98583984375	15.31950283050537	-228.0835266113281	933.5504760742188	40.10551071166992	-257.477783203125	904.3565063476562	-36.63395309448242	-311.7567749023438	1077.875854492188	-24.11438179016113	-201.1862182617188	765.7262573242188	39.61109924316406	-240.4421234130859	846.6515502929688	-25.79326629638672	-196.3796081542969	860.6701049804688	24.39318466186523	-380.1052551269531	1482.427856445312	432.4498901367188	-395.6358032226562	1420.0654296875	503.5976257324219	-400.1115417480469	1129.235961914062	551.2764282226562	-454.4791259765625	1111.002563476562	525.7083129882812	-262.3458862304688	912.0574340820312	507.4059143066406	-305.1799621582031	890.1764526367188	574.2750244140625	-388.0776977539062	1073.718505859375	558.489501953125	-242.3901062011719	738.9495849609375	515.9520263671875	-230.9463653564453	821.7825927734375	522.133056640625	-286.7178955078125	815.7041015625	571.0171508789062	-387.7648010253906	1677.023681640625	351.8515014648438	-242.1279907226562	1724.761596679688	211.1897583007812	-252.6027069091797	1714.853881835938	354.83935546875	-368.5313415527344	1687.521484375	187.2163696289062	-329.0501098632812	964.0911254882812	73.05001831054688	-375.6521301269531	944.6223754882812	448.2043151855469	-290.8494873046875	973.8195190429688	387.7095947265625	-294.0353393554688	967.8945922851562	113.6281280517578	-314.5729064941406	492.4583740234375	72.36628723144531	-325.0592346191406	664.8583984375	59.15763092041016	-688.2462768554688	171.6329498291016	70.20752716064453	-520.9757690429688	334.8634033203125	65.75603485107422	-519.4689331054688	52.74176406860352	115.0448379516602	-572.083984375	94.63225555419922	153.3515472412109	-599.093505859375	93.48631286621094	50.79251098632812	-731.774169921875	220.0684204101562	126.6261444091797	-321.3570251464844	497.9278869628906	380.897216796875	-328.318359375	788.6405029296875	438.4310913085938	-416.4487915039062	37.37483596801758	339.2251281738281	-320.3057556152344	353.3539428710938	358.9060363769531	-193.7957763671875	39.10969924926758	308.889404296875	-255.3270263671875	39.68154525756836	265.0882873535156	-285.4015197753906	39.90684509277344	366.2713012695312	-468.0802612304688	30.36372756958008	281.3146057128906	
279	2.78	-497.9836730957031	1016.69580078125	328.2171020507812	-495.7954711914062	1019.29052734375	194.9291229248047	-489.292724609375	1121.232543945312	258.4686584472656	-247.0615234375	1304.302001953125	258.9516296386719	-496.4992370605469	1245.0439453125	258.2667541503906	-442.8367614746094	1516.349853515625	279.0299682617188	-261.0107116699219	1418.454956054688	264.7990417480469	-509.3824768066406	1391.284912109375	367.177490234375	-476.3623352050781	1468.630737304688	182.1597900390625	-372.2290344238281	1498.330688476562	106.2256240844727	-373.3224182128906	1379.569946289062	14.70572090148926	-343.7010498046875	1160.172973632812	-19.16220474243164	-438.0570373535156	1143.965698242188	16.08200645446777	-223.4973754882812	935.2634887695312	41.09447860717773	-252.9384155273438	905.4146118164062	-35.3804817199707	-308.7493591308594	1078.439086914062	-23.3891773223877	-194.7780151367188	767.7396240234375	41.26118850708008	-235.2147216796875	847.957763671875	-24.37262344360352	-191.0921478271484	862.6328125	25.56126976013184	-376.1737976074219	1482.863891601562	433.0523681640625	-391.5332336425781	1420.60791015625	504.3145141601562	-395.87744140625	1129.789306640625	552.1847534179688	-450.5586242675781	1111.666015625	526.9265747070312	-258.7151489257812	912.3960571289062	507.9560546875	-301.2593994140625	890.6312866210938	575.0370483398438	-383.9904174804688	1074.264282226562	559.4269409179688	-239.0020446777344	739.255126953125	516.5807495117188	-227.3518981933594	822.0860595703125	522.598876953125	-283.0245361328125	816.0767822265625	571.6964111328125	-383.7535705566406	1677.389404296875	352.1445007324219	-238.1586456298828	1724.7333984375	211.2879333496094	-248.4958343505859	1714.962768554688	354.9418029785156	-364.6972045898438	1687.746215820312	187.4828796386719	-324.0354614257812	965.9301147460938	74.45677185058594	-372.5818176269531	944.4076538085938	449.2084350585938	-287.6948852539062	973.844970703125	388.8578186035156	-290.67919921875	968.6182861328125	114.7529602050781	-306.2196655273438	493.8055419921875	72.71819305419922	-318.61767578125	666.0442504882812	59.48716354370117	-676.76123046875	169.5263824462891	70.41991424560547	-511.5201721191406	334.8478393554688	66.19480133056641	-504.4803466796875	54.70309066772461	111.2765502929688	-557.5877075195312	94.18881988525391	150.7595672607422	-585.6141967773438	94.35238647460938	48.36823654174805	-720.7229614257812	216.1121368408203	128.130126953125	-319.9743957519531	497.5830688476562	381.4137268066406	-325.7220153808594	788.3518676757812	439.1499938964844	-416.3951110839844	37.4857063293457	339.1744384765625	-319.4161987304688	353.0825805664062	359.1202087402344	-193.7685394287109	39.09319686889648	308.8796081542969	-255.3089752197266	39.62285232543945	265.0416564941406	-285.3909606933594	39.93632888793945	366.2322692871094	-468.0015563964844	30.38315582275391	281.1933898925781	
280	2.79	-494.8739318847656	1016.58544921875	329.0511474609375	-492.646240234375	1019.327758789062	195.775390625	-486.3585205078125	1121.47265625	259.7061462402344	-243.8216857910156	1304.456787109375	259.5301513671875	-493.3310546875	1245.311645507812	259.5230407714844	-439.2709045410156	1516.62841796875	279.748779296875	-257.5482482910156	1418.63427734375	265.1083068847656	-505.7362670898438	1391.755981445312	368.2406616210938	-473.1631164550781	1468.824340820312	183.1159210205078	-369.2598571777344	1498.34130859375	106.7894821166992	-370.8829650878906	1379.562744140625	15.3848991394043	-341.4825134277344	1160.35888671875	-18.63154983520508	-435.7514343261719	1143.970947265625	16.84761428833008	-219.1322326660156	936.940673828125	41.97080993652344	-248.6614685058594	906.4490356445312	-34.23297882080078	-305.9461669921875	1078.98291015625	-22.72819709777832	-188.6736755371094	769.7215576171875	42.75420379638672	-230.2831420898438	849.231201171875	-23.06043434143066	-186.0635223388672	864.5662841796875	26.58096313476562	-372.2843933105469	1483.311157226562	433.6152038574219	-387.4655151367188	1421.163818359375	504.9924621582031	-391.6836547851562	1130.348022460938	553.030517578125	-446.6839599609375	1112.333374023438	528.091796875	-255.1742248535156	912.7158203125	508.4720458984375	-297.4333190917969	891.078857421875	575.7605590820312	-379.9625549316406	1074.826416015625	560.3084106445312	-235.7545623779297	739.5338134765625	517.1588745117188	-223.8807373046875	822.35302734375	523.0256958007812	-279.4212646484375	816.4508056640625	572.348388671875	-379.7725830078125	1677.759033203125	352.3838806152344	-234.2236785888672	1724.688720703125	211.3294830322266	-244.4181365966797	1715.070922851562	354.9890747070312	-360.8979797363281	1687.94775390625	187.7016906738281	-319.2813415527344	967.7393188476562	75.71480560302734	-369.6292419433594	944.1634521484375	450.1442260742188	-284.6268615722656	973.8543701171875	389.9977722167969	-287.3451232910156	969.3433837890625	115.8644638061523	-297.9940490722656	495.1908569335938	73.16416168212891	-312.2510681152344	667.2557983398438	59.85284423828125	-664.6770629882812	166.6718444824219	70.59048461914062	-501.818359375	334.4368286132812	66.63377380371094	-488.9025573730469	56.2203254699707	107.5416641235352	-542.51708984375	93.24124908447266	148.1725463867188	-571.555908203125	94.62080383300781	46.00214767456055	-709.0725708007812	211.3782806396484	129.4709014892578	-318.5367431640625	497.2440795898438	381.8911743164062	-323.220703125	788.0503540039062	439.8600769042969	-416.3391723632812	37.5942497253418	339.1190185546875	-318.4776916503906	352.8070678710938	359.3109436035156	-193.7585144042969	39.07531356811523	308.890625	-255.2925109863281	39.56826400756836	264.9931030273438	-285.3794250488281	39.96761322021484	366.1929626464844	-467.932861328125	30.40872192382812	281.0783081054688	
281	2.8	-491.8433837890625	1016.476013183594	329.7974243164062	-489.5240173339844	1019.370300292969	196.5134429931641	-483.4888916015625	1121.69140625	260.8675842285156	-240.5804290771484	1304.592163085938	260.092529296875	-490.2116088867188	1245.569458007812	260.7216491699219	-435.7190246582031	1516.892211914062	280.430419921875	-254.1134490966797	1418.790893554688	265.400390625	-502.1199340820312	1392.222290039062	369.2650146484375	-469.9635925292969	1469.003295898438	184.0335845947266	-366.2980651855469	1498.328002929688	107.32861328125	-368.4626159667969	1379.532348632812	16.03602027893066	-339.4091186523438	1160.517700195312	-18.13881874084473	-433.5743713378906	1143.981079101562	17.6431884765625	-214.9916229248047	938.5534057617188	42.73223114013672	-244.6519775390625	907.4356689453125	-33.19039154052734	-303.3397827148438	1079.491455078125	-22.12987899780273	-182.8931732177734	771.6490478515625	44.08582305908203	-225.6549682617188	850.4454956054688	-21.85500717163086	-181.3045806884766	866.4429321289062	27.45106315612793	-368.4281616210938	1483.756591796875	434.1416625976562	-383.4294738769531	1421.720458984375	505.6347045898438	-387.5435791015625	1130.901733398438	553.8209228515625	-442.8558349609375	1112.99267578125	529.2051391601562	-251.7141723632812	913.0138549804688	508.957275390625	-293.6975708007812	891.5121459960938	576.4480590820312	-375.9957885742188	1075.389770507812	561.137939453125	-232.6227111816406	739.7865600585938	517.6903686523438	-220.5251312255859	822.583740234375	523.4305419921875	-275.89013671875	816.8296508789062	572.9832763671875	-375.8197326660156	1678.121337890625	352.572998046875	-230.3262023925781	1724.62109375	211.3186492919922	-240.3721466064453	1715.174682617188	354.9839477539062	-357.1271362304688	1688.11083984375	187.8750610351562	-314.7965393066406	969.4918823242188	76.82324981689453	-366.7804260253906	943.8887329101562	450.9993286132812	-281.6416931152344	973.841552734375	391.1236877441406	-284.0462341308594	970.048583984375	116.9575271606445	-289.8756103515625	496.5950012207031	73.7064208984375	-305.955810546875	668.4701538085938	60.26372528076172	-651.9776000976562	163.1418304443359	70.69195556640625	-491.8651733398438	333.6360168457031	67.06570434570312	-472.7680358886719	57.334716796875	103.8734283447266	-526.9154052734375	91.8358154296875	145.6316986083984	-556.9337768554688	94.34100341796875	43.71461486816406	-696.8368530273438	205.9346923828125	130.6263122558594	-317.0458984375	496.909423828125	382.3280334472656	-320.7798156738281	787.7308349609375	440.5475463867188	-416.2838745117188	37.69681549072266	339.0591430664062	-317.49169921875	352.5214233398438	359.4815979003906	-193.7601623535156	39.05448150634766	308.9166870117188	-255.277099609375	39.51840591430664	264.9465637207031	-285.3675842285156	39.9995002746582	366.1540832519531	-467.8661499023438	30.43811798095703	280.9626159667969	
